# Blender v2.79 (sub 0) OBJ File: 'jatekfileok.blend'
# www.blender.org
o Plane.010_Plane.015
v 60.000000 -10.701353 -100.000000
v 64.000000 -10.701353 -100.000000
v 68.000000 -10.701353 -100.000000
v 72.000000 -10.701353 -100.000000
v 76.000000 -10.701353 -100.000000
v 80.000000 -10.701353 -100.000000
v 84.000000 -10.701353 -100.000000
v 84.000000 -10.701353 -96.000000
v 80.000000 -10.701353 -96.000000
v 76.000000 -10.701353 -96.000000
v 72.000000 -10.701353 -96.000000
v 68.000000 -10.701353 -96.000000
v 64.000000 -10.701353 -96.000000
v 60.000000 -10.701353 -96.000000
v 100.000000 -10.701353 -72.000000
v 100.000000 -10.701353 -76.000000
v 100.000000 -10.701353 -80.000000
v 100.000000 -10.701353 -84.000000
v 100.000000 -10.701353 -88.000000
v 96.000000 -10.701353 -72.000000
v 96.000000 -10.701353 -76.000000
v 96.000000 -10.701353 -80.000000
v 96.000000 -10.701353 -84.000000
v 96.000000 -10.701353 -88.000000
v 92.000000 -10.701353 -72.000000
v 92.000000 -10.701353 -76.000000
v 92.000000 -10.701353 -80.000000
v 92.000000 -10.701353 -84.000000
v 92.000000 -10.701353 -88.000000
v 88.000000 -10.701353 -72.000000
v 88.000000 -10.701353 -76.000000
v 88.000000 -10.701353 -80.000000
v 88.000000 -10.701353 -84.000000
v 88.000000 -10.701353 -88.000000
v 88.000000 -10.701353 -92.000000
v 84.000000 -10.701353 -76.000000
v 84.000000 -10.701353 -80.000000
v 84.000000 -10.701353 -84.000000
v 84.000000 -10.701353 -88.000000
v 84.000000 -10.701353 -92.000000
v 80.000000 -10.701353 -80.000000
v 80.000000 -10.701353 -84.000000
v 80.000000 -10.701353 -88.000000
v 80.000000 -10.701353 -92.000000
v 76.000000 -10.701353 -80.000000
v 76.000000 -10.701353 -84.000000
v 76.000000 -10.701353 -88.000000
v 76.000000 -10.701353 -92.000000
v 72.000000 -10.701353 -84.000000
v 72.000000 -10.701353 -88.000000
v 72.000000 -10.701353 -92.000000
v 68.000000 -10.701353 -84.000000
v 68.000000 -10.701353 -88.000000
v 68.000000 -10.701353 -92.000000
v 64.000000 -10.701353 -88.000000
v 64.000000 -10.701353 -92.000000
v 60.000000 -10.701353 -92.000000
v 104.000000 -10.701353 -88.000000
v 104.000000 -10.701353 -84.000000
v 104.000000 -10.701353 -80.000000
v 104.000000 -10.701353 -76.000000
v 104.000000 -10.701353 -72.000000
v 136.000000 -10.701353 -0.000001
v 132.000000 -10.701353 -0.000001
v 128.000000 -10.701353 -0.000001
v 124.000000 -10.701353 -0.000001
v 120.000000 -10.701353 -0.000001
v 116.000000 -10.701353 -0.000001
v 112.000000 -10.701353 -0.000000
v 108.000000 -10.701353 -0.000000
v 124.000000 -10.701353 -88.000000
v 120.000000 -10.701353 -88.000000
v 116.000000 -10.701353 -88.000000
v 112.000000 -10.701353 -88.000000
v 108.000000 -10.701353 -88.000000
v 128.000000 -10.701353 -84.000000
v 124.000000 -10.701353 -84.000000
v 120.000000 -10.701353 -84.000000
v 116.000000 -10.701353 -84.000000
v 112.000000 -10.701353 -84.000000
v 108.000000 -10.701353 -84.000000
v 128.000000 -10.701353 -80.000000
v 124.000000 -10.701353 -80.000000
v 120.000000 -10.701353 -80.000000
v 116.000000 -10.701353 -80.000000
v 112.000000 -10.701353 -80.000000
v 108.000000 -10.701353 -80.000000
v 132.000000 -10.701353 -76.000000
v 128.000000 -10.701353 -76.000000
v 124.000000 -10.701353 -76.000000
v 120.000000 -10.701353 -76.000000
v 116.000000 -10.701353 -76.000000
v 112.000000 -10.701353 -76.000000
v 108.000000 -10.701353 -76.000000
v 132.000000 -10.701353 -72.000000
v 128.000000 -10.701353 -72.000000
v 124.000000 -10.701353 -72.000000
v 120.000000 -10.701353 -72.000000
v 116.000000 -10.701353 -72.000000
v 112.000000 -10.701353 -72.000000
v 108.000000 -10.701353 -72.000000
v 132.000000 -10.701353 -68.000000
v 128.000000 -10.701353 -68.000000
v 124.000000 -10.701353 -68.000000
v 120.000000 -10.701353 -68.000000
v 116.000000 -10.701353 -68.000000
v 112.000000 -10.701353 -68.000000
v 108.000000 -10.701353 -68.000000
v 132.000000 -10.701353 -64.000000
v 128.000000 -10.701353 -64.000000
v 124.000000 -10.701353 -64.000000
v 120.000000 -10.701353 -64.000000
v 116.000000 -10.701353 -64.000000
v 112.000000 -10.701353 -64.000000
v 108.000000 -10.701353 -64.000000
v 132.000000 -10.701353 -60.000000
v 128.000000 -10.701353 -60.000000
v 124.000000 -10.701353 -60.000000
v 120.000000 -10.701353 -60.000000
v 116.000000 -10.701353 -60.000000
v 112.000000 -10.701353 -60.000000
v 108.000000 -10.701353 -60.000000
v 132.000000 -10.701353 -56.000000
v 128.000000 -10.701353 -56.000000
v 124.000000 -10.701353 -56.000000
v 120.000000 -10.701353 -56.000000
v 116.000000 -10.701353 -56.000000
v 112.000000 -10.701353 -56.000000
v 108.000000 -10.701353 -56.000000
v 136.000000 -10.701353 -52.000000
v 132.000000 -10.701353 -52.000000
v 128.000000 -10.701353 -52.000000
v 124.000000 -10.701353 -52.000000
v 120.000000 -10.701353 -52.000000
v 116.000000 -10.701353 -52.000000
v 112.000000 -10.701353 -52.000000
v 108.000000 -10.701353 -52.000000
v 136.000000 -10.701353 -48.000000
v 132.000000 -10.701353 -48.000000
v 128.000000 -10.701353 -48.000000
v 124.000000 -10.701353 -48.000000
v 120.000000 -10.701353 -48.000000
v 116.000000 -10.701353 -48.000000
v 112.000000 -10.701353 -48.000000
v 108.000000 -10.701353 -48.000000
v 136.000000 -10.701353 -44.000000
v 132.000000 -10.701353 -44.000000
v 128.000000 -10.701353 -44.000000
v 124.000000 -10.701353 -44.000000
v 120.000000 -10.701353 -44.000000
v 116.000000 -10.701353 -44.000000
v 112.000000 -10.701353 -44.000000
v 108.000000 -10.701353 -44.000000
v 136.000000 -10.701353 -40.000000
v 132.000000 -10.701353 -40.000000
v 128.000000 -10.701353 -40.000000
v 124.000000 -10.701353 -40.000000
v 120.000000 -10.701353 -40.000000
v 116.000000 -10.701353 -40.000000
v 112.000000 -10.701353 -40.000000
v 108.000000 -10.701353 -40.000000
v 136.000000 -10.701353 -36.000000
v 132.000000 -10.701353 -36.000000
v 128.000000 -10.701353 -36.000000
v 124.000000 -10.701353 -36.000000
v 120.000000 -10.701353 -36.000000
v 116.000000 -10.701353 -36.000000
v 112.000000 -10.701353 -36.000000
v 108.000000 -10.701353 -36.000000
v 136.000000 -10.701353 -32.000000
v 132.000000 -10.701353 -32.000000
v 128.000000 -10.701353 -32.000000
v 124.000000 -10.701353 -32.000000
v 120.000000 -10.701353 -32.000000
v 116.000000 -10.701353 -32.000000
v 112.000000 -10.701353 -32.000000
v 108.000000 -10.701353 -32.000000
v 104.000000 -10.701353 -32.000000
v 136.000000 -10.701353 -28.000000
v 132.000000 -10.701353 -28.000000
v 128.000000 -10.701353 -28.000000
v 124.000000 -10.701353 -28.000000
v 120.000000 -10.701353 -28.000000
v 116.000000 -10.701353 -28.000000
v 112.000000 -10.701353 -28.000000
v 108.000000 -10.701353 -28.000000
v 104.000000 -10.701353 -28.000000
v 136.000000 -10.701353 -24.000000
v 132.000000 -10.701353 -24.000000
v 128.000000 -10.701353 -24.000000
v 124.000000 -10.701353 -24.000000
v 120.000000 -10.701353 -24.000000
v 116.000000 -10.701353 -24.000000
v 112.000000 -10.701353 -24.000000
v 108.000000 -10.701353 -24.000000
v 104.000000 -10.701353 -24.000000
v 136.000000 -10.701353 -20.000000
v 132.000000 -10.701353 -20.000000
v 128.000000 -10.701353 -20.000000
v 124.000000 -10.701353 -20.000000
v 120.000000 -10.701353 -20.000000
v 116.000000 -10.701353 -20.000000
v 112.000000 -10.701353 -20.000000
v 108.000000 -10.701353 -20.000000
v 104.000000 -10.701353 -20.000000
v 136.000000 -10.701353 -16.000000
v 132.000000 -10.701353 -16.000000
v 128.000000 -10.701353 -16.000000
v 124.000000 -10.701353 -16.000000
v 120.000000 -10.701353 -16.000000
v 116.000000 -10.701353 -16.000000
v 112.000000 -10.701353 -16.000000
v 108.000000 -10.701353 -16.000000
v 104.000000 -10.701353 -16.000000
v 136.000000 -10.701353 -12.000001
v 132.000000 -10.701353 -12.000001
v 128.000000 -10.701353 -12.000001
v 124.000000 -10.701353 -12.000001
v 120.000000 -10.701353 -12.000001
v 116.000000 -10.701353 -12.000001
v 112.000000 -10.701353 -12.000001
v 108.000000 -10.701353 -12.000001
v 104.000000 -10.701353 -12.000000
v 136.000000 -10.701353 -8.000002
v 132.000000 -10.701353 -8.000002
v 128.000000 -10.701353 -8.000002
v 124.000000 -10.701353 -8.000002
v 120.000000 -10.701353 -8.000002
v 116.000000 -10.701353 -8.000002
v 112.000000 -10.701353 -8.000002
v 108.000000 -10.701353 -8.000001
v 104.000000 -10.701353 -8.000000
v 136.000000 -10.701353 -4.000002
v 132.000000 -10.701353 -4.000002
v 128.000000 -10.701353 -4.000002
v 124.000000 -10.701353 -4.000001
v 120.000000 -10.701353 -4.000001
v 116.000000 -10.701353 -4.000001
v 112.000000 -10.701353 -4.000001
v 108.000000 -10.701353 -4.000000
vt 0.807477 0.000094
vt 0.781067 0.049141
vt 0.818796 0.037822
vt 0.769749 0.011412
vt 0.743339 0.060459
vt 0.792386 0.086869
vt 0.830114 0.075550
vt 0.754657 0.098187
vt 0.716929 0.109506
vt 0.803704 0.124597
vt 0.841433 0.113279
vt 0.765976 0.135916
vt 0.728247 0.147235
vt 0.690519 0.158553
vt 0.815023 0.162326
vt 0.852751 0.151007
vt 0.777294 0.173644
vt 0.739566 0.184963
vt 0.701838 0.196282
vt 0.826341 0.200054
vt 0.864070 0.188735
vt 0.788613 0.211373
vt 0.750885 0.222691
vt 0.713156 0.234010
vt 0.675428 0.245329
vt 0.837660 0.237782
vt 0.875388 0.226464
vt 0.799932 0.249101
vt 0.762203 0.260420
vt 0.724475 0.271738
vt 0.686747 0.283057
vt 0.773522 0.298148
vt 0.811250 0.286829
vt 0.735794 0.309467
vt 0.698066 0.320785
vt 0.660337 0.332104
vt 0.747113 0.347195
vt 0.784841 0.335876
vt 0.709384 0.358514
vt 0.671656 0.369832
vt 0.633928 0.381151
vt 0.758431 0.384923
vt 0.796160 0.373604
vt 0.720703 0.396242
vt 0.682975 0.407561
vt 0.645247 0.418880
vt 0.769750 0.422651
vt 0.807478 0.411333
vt 0.732022 0.433970
vt 0.694294 0.445289
vt 0.656565 0.456608
vt 0.781069 0.460380
vt 0.818797 0.449061
vt 0.743341 0.471698
vt 0.705612 0.483017
vt 0.667884 0.494336
vt 0.143465 0.939540
vt 0.117056 0.988587
vt 0.154784 0.977268
vt 0.132146 0.901811
vt 0.105737 0.950859
vt 0.120827 0.864083
vt 0.094418 0.913130
vt 0.109508 0.826355
vt 0.083099 0.875402
vt 0.098189 0.788626
vt 0.071779 0.837674
vt 0.086869 0.750898
vt 0.060460 0.799945
vt 0.075550 0.713170
vt 0.049141 0.762217
vt 0.181194 0.928220
vt 0.192513 0.965949
vt 0.169874 0.890492
vt 0.158555 0.852764
vt 0.147236 0.815036
vt 0.135917 0.777307
vt 0.124598 0.739579
vt 0.113279 0.701850
vt 0.101959 0.664122
vt 0.218922 0.916901
vt 0.230241 0.954630
vt 0.207603 0.879173
vt 0.196284 0.841445
vt 0.184964 0.803716
vt 0.173645 0.765988
vt 0.162326 0.728260
vt 0.151007 0.690531
vt 0.139688 0.652803
vt 0.256650 0.905582
vt 0.267969 0.943310
vt 0.245331 0.867854
vt 0.234012 0.830125
vt 0.222693 0.792397
vt 0.211374 0.754669
vt 0.200054 0.716941
vt 0.188735 0.679212
vt 0.177416 0.641484
vt 0.294378 0.894263
vt 0.305698 0.931991
vt 0.283059 0.856535
vt 0.271740 0.818806
vt 0.260421 0.781078
vt 0.249102 0.743350
vt 0.237783 0.705621
vt 0.226464 0.667893
vt 0.215144 0.630165
vt 0.332107 0.882944
vt 0.343426 0.920672
vt 0.320788 0.845215
vt 0.309468 0.807487
vt 0.298149 0.769759
vt 0.286830 0.732031
vt 0.275511 0.694302
vt 0.264192 0.656574
vt 0.252873 0.618846
vt 0.369835 0.871625
vt 0.381154 0.909353
vt 0.358516 0.833896
vt 0.347197 0.796168
vt 0.335878 0.758440
vt 0.324558 0.720711
vt 0.313239 0.682983
vt 0.301920 0.645255
vt 0.290601 0.607527
vt 0.407563 0.860305
vt 0.418883 0.898034
vt 0.396244 0.822577
vt 0.384925 0.784849
vt 0.373606 0.747121
vt 0.362287 0.709392
vt 0.350968 0.671664
vt 0.339649 0.633936
vt 0.445292 0.848986
vt 0.456611 0.886715
vt 0.433972 0.811258
vt 0.422653 0.773530
vt 0.411334 0.735802
vt 0.400015 0.698073
vt 0.388696 0.660345
vt 0.377377 0.622617
vt 0.483020 0.837667
vt 0.494339 0.875395
vt 0.471701 0.799939
vt 0.460382 0.762211
vt 0.449062 0.724482
vt 0.437743 0.686754
vt 0.426424 0.649026
vt 0.415105 0.611298
vt 0.520748 0.826348
vt 0.532067 0.864076
vt 0.509429 0.788620
vt 0.498110 0.750891
vt 0.486791 0.713163
vt 0.475472 0.675435
vt 0.464152 0.637707
vt 0.452833 0.599978
vt 0.558476 0.815029
vt 0.569795 0.852757
vt 0.547157 0.777301
vt 0.535838 0.739572
vt 0.524519 0.701844
vt 0.513200 0.664116
vt 0.501881 0.626388
vt 0.490562 0.588659
vt 0.584885 0.765981
vt 0.596204 0.803710
vt 0.573566 0.728253
vt 0.562247 0.690525
vt 0.550928 0.652797
vt 0.539609 0.615069
vt 0.528290 0.577340
vt 0.622613 0.754662
vt 0.633933 0.792391
vt 0.611294 0.716934
vt 0.599975 0.679206
vt 0.588656 0.641478
vt 0.577337 0.603750
vt 0.566018 0.566021
vt 0.660342 0.743343
vt 0.671661 0.781071
vt 0.649023 0.705615
vt 0.637704 0.667887
vt 0.626384 0.630159
vt 0.615066 0.592430
vt 0.603746 0.554702
vt 0.698070 0.732024
vt 0.709389 0.769752
vt 0.686751 0.694296
vt 0.675432 0.656568
vt 0.664113 0.618840
vt 0.652794 0.581112
vt 0.641475 0.543383
vt 0.735798 0.720705
vt 0.747117 0.758433
vt 0.724479 0.682977
vt 0.713160 0.645249
vt 0.701841 0.607521
vt 0.690522 0.569793
vt 0.679203 0.532064
vt 0.773526 0.709386
vt 0.784845 0.747114
vt 0.762207 0.671658
vt 0.750888 0.633930
vt 0.739569 0.596202
vt 0.728250 0.558474
vt 0.716931 0.520745
vt 0.799935 0.660339
vt 0.811254 0.698067
vt 0.788616 0.622611
vt 0.777297 0.584883
vt 0.765978 0.547155
vt 0.754660 0.509427
vt 0.837663 0.649020
vt 0.848982 0.686748
vt 0.826344 0.611292
vt 0.815025 0.573564
vt 0.803706 0.535836
vt 0.792388 0.498108
vt 0.864072 0.599973
vt 0.875391 0.637701
vt 0.852753 0.562245
vt 0.841435 0.524517
vt 0.830116 0.486789
vt 0.079328 0.999906
vt 0.068009 0.962178
vt 0.056689 0.924450
vt 0.045370 0.886721
vt 0.034051 0.848993
vt 0.022732 0.811265
vt 0.037822 0.724489
vt 0.011413 0.773536
vt 0.732020 0.022731
vt 0.705610 0.071778
vt 0.679200 0.120825
vt 0.664109 0.207600
vt 0.649018 0.294376
vt 0.622609 0.343423
vt 0.064231 0.675441
vt 0.000094 0.735808
vn 0.0000 1.0000 0.0000
s off
f 1/1/1 13/2/1 2/3/1
f 14/4/1 56/5/1 13/2/1
f 2/3/1 12/6/1 3/7/1
f 13/2/1 54/8/1 12/6/1
f 56/5/1 53/9/1 54/8/1
f 3/7/1 11/10/1 4/11/1
f 12/6/1 51/12/1 11/10/1
f 54/8/1 50/13/1 51/12/1
f 53/9/1 49/14/1 50/13/1
f 4/11/1 10/15/1 5/16/1
f 11/10/1 48/17/1 10/15/1
f 51/12/1 47/18/1 48/17/1
f 50/13/1 46/19/1 47/18/1
f 5/16/1 9/20/1 6/21/1
f 10/15/1 44/22/1 9/20/1
f 48/17/1 43/23/1 44/22/1
f 47/18/1 42/24/1 43/23/1
f 46/19/1 41/25/1 42/24/1
f 6/21/1 8/26/1 7/27/1
f 9/20/1 40/28/1 8/26/1
f 44/22/1 39/29/1 40/28/1
f 43/23/1 38/30/1 39/29/1
f 42/24/1 37/31/1 38/30/1
f 40/28/1 34/32/1 35/33/1
f 39/29/1 33/34/1 34/32/1
f 38/30/1 32/35/1 33/34/1
f 37/31/1 31/36/1 32/35/1
f 34/32/1 28/37/1 29/38/1
f 33/34/1 27/39/1 28/37/1
f 32/35/1 26/40/1 27/39/1
f 31/36/1 25/41/1 26/40/1
f 29/38/1 23/42/1 24/43/1
f 28/37/1 22/44/1 23/42/1
f 27/39/1 21/45/1 22/44/1
f 26/40/1 20/46/1 21/45/1
f 24/43/1 18/47/1 19/48/1
f 23/42/1 17/49/1 18/47/1
f 22/44/1 16/50/1 17/49/1
f 21/45/1 15/51/1 16/50/1
f 19/48/1 59/52/1 58/53/1
f 18/47/1 60/54/1 59/52/1
f 17/49/1 61/55/1 60/54/1
f 16/50/1 62/56/1 61/55/1
f 225/57/1 233/58/1 224/59/1
f 226/60/1 234/61/1 225/57/1
f 227/62/1 235/63/1 226/60/1
f 228/64/1 236/65/1 227/62/1
f 229/66/1 237/67/1 228/64/1
f 230/68/1 238/69/1 229/66/1
f 231/70/1 239/71/1 230/68/1
f 216/72/1 224/59/1 215/73/1
f 217/74/1 225/57/1 216/72/1
f 218/75/1 226/60/1 217/74/1
f 219/76/1 227/62/1 218/75/1
f 220/77/1 228/64/1 219/76/1
f 221/78/1 229/66/1 220/77/1
f 222/79/1 230/68/1 221/78/1
f 223/80/1 231/70/1 222/79/1
f 207/81/1 215/73/1 206/82/1
f 208/83/1 216/72/1 207/81/1
f 209/84/1 217/74/1 208/83/1
f 210/85/1 218/75/1 209/84/1
f 211/86/1 219/76/1 210/85/1
f 212/87/1 220/77/1 211/86/1
f 213/88/1 221/78/1 212/87/1
f 214/89/1 222/79/1 213/88/1
f 198/90/1 206/82/1 197/91/1
f 199/92/1 207/81/1 198/90/1
f 200/93/1 208/83/1 199/92/1
f 201/94/1 209/84/1 200/93/1
f 202/95/1 210/85/1 201/94/1
f 203/96/1 211/86/1 202/95/1
f 204/97/1 212/87/1 203/96/1
f 205/98/1 213/88/1 204/97/1
f 189/99/1 197/91/1 188/100/1
f 190/101/1 198/90/1 189/99/1
f 191/102/1 199/92/1 190/101/1
f 192/103/1 200/93/1 191/102/1
f 193/104/1 201/94/1 192/103/1
f 194/105/1 202/95/1 193/104/1
f 195/106/1 203/96/1 194/105/1
f 196/107/1 204/97/1 195/106/1
f 180/108/1 188/100/1 179/109/1
f 181/110/1 189/99/1 180/108/1
f 182/111/1 190/101/1 181/110/1
f 183/112/1 191/102/1 182/111/1
f 184/113/1 192/103/1 183/112/1
f 185/114/1 193/104/1 184/113/1
f 186/115/1 194/105/1 185/114/1
f 187/116/1 195/106/1 186/115/1
f 171/117/1 179/109/1 170/118/1
f 172/119/1 180/108/1 171/117/1
f 173/120/1 181/110/1 172/119/1
f 174/121/1 182/111/1 173/120/1
f 175/122/1 183/112/1 174/121/1
f 176/123/1 184/113/1 175/122/1
f 177/124/1 185/114/1 176/123/1
f 178/125/1 186/115/1 177/124/1
f 163/126/1 170/118/1 162/127/1
f 164/128/1 171/117/1 163/126/1
f 165/129/1 172/119/1 164/128/1
f 166/130/1 173/120/1 165/129/1
f 167/131/1 174/121/1 166/130/1
f 168/132/1 175/122/1 167/131/1
f 169/133/1 176/123/1 168/132/1
f 155/134/1 162/127/1 154/135/1
f 156/136/1 163/126/1 155/134/1
f 157/137/1 164/128/1 156/136/1
f 158/138/1 165/129/1 157/137/1
f 159/139/1 166/130/1 158/138/1
f 160/140/1 167/131/1 159/139/1
f 161/141/1 168/132/1 160/140/1
f 147/142/1 154/135/1 146/143/1
f 148/144/1 155/134/1 147/142/1
f 149/145/1 156/136/1 148/144/1
f 150/146/1 157/137/1 149/145/1
f 151/147/1 158/138/1 150/146/1
f 152/148/1 159/139/1 151/147/1
f 153/149/1 160/140/1 152/148/1
f 139/150/1 146/143/1 138/151/1
f 140/152/1 147/142/1 139/150/1
f 141/153/1 148/144/1 140/152/1
f 142/154/1 149/145/1 141/153/1
f 143/155/1 150/146/1 142/154/1
f 144/156/1 151/147/1 143/155/1
f 145/157/1 152/148/1 144/156/1
f 131/158/1 138/151/1 130/159/1
f 132/160/1 139/150/1 131/158/1
f 133/161/1 140/152/1 132/160/1
f 134/162/1 141/153/1 133/161/1
f 135/163/1 142/154/1 134/162/1
f 136/164/1 143/155/1 135/163/1
f 137/165/1 144/156/1 136/164/1
f 124/166/1 131/158/1 123/167/1
f 125/168/1 132/160/1 124/166/1
f 126/169/1 133/161/1 125/168/1
f 127/170/1 134/162/1 126/169/1
f 128/171/1 135/163/1 127/170/1
f 129/172/1 136/164/1 128/171/1
f 117/173/1 123/167/1 116/174/1
f 118/175/1 124/166/1 117/173/1
f 119/176/1 125/168/1 118/175/1
f 120/177/1 126/169/1 119/176/1
f 121/178/1 127/170/1 120/177/1
f 122/179/1 128/171/1 121/178/1
f 110/180/1 116/174/1 109/181/1
f 111/182/1 117/173/1 110/180/1
f 112/183/1 118/175/1 111/182/1
f 113/184/1 119/176/1 112/183/1
f 114/185/1 120/177/1 113/184/1
f 115/186/1 121/178/1 114/185/1
f 103/187/1 109/181/1 102/188/1
f 104/189/1 110/180/1 103/187/1
f 105/190/1 111/182/1 104/189/1
f 106/191/1 112/183/1 105/190/1
f 107/192/1 113/184/1 106/191/1
f 108/193/1 114/185/1 107/192/1
f 96/194/1 102/188/1 95/195/1
f 97/196/1 103/187/1 96/194/1
f 98/197/1 104/189/1 97/196/1
f 99/198/1 105/190/1 98/197/1
f 100/199/1 106/191/1 99/198/1
f 101/200/1 107/192/1 100/199/1
f 89/201/1 95/195/1 88/202/1
f 90/203/1 96/194/1 89/201/1
f 91/204/1 97/196/1 90/203/1
f 92/205/1 98/197/1 91/204/1
f 93/206/1 99/198/1 92/205/1
f 94/207/1 100/199/1 93/206/1
f 61/55/1 101/200/1 94/207/1
f 83/208/1 89/201/1 82/209/1
f 84/210/1 90/203/1 83/208/1
f 85/211/1 91/204/1 84/210/1
f 86/212/1 92/205/1 85/211/1
f 87/213/1 93/206/1 86/212/1
f 60/54/1 94/207/1 87/213/1
f 77/214/1 82/209/1 76/215/1
f 78/216/1 83/208/1 77/214/1
f 79/217/1 84/210/1 78/216/1
f 80/218/1 85/211/1 79/217/1
f 81/219/1 86/212/1 80/218/1
f 59/52/1 87/213/1 81/219/1
f 72/220/1 77/214/1 71/221/1
f 73/222/1 78/216/1 72/220/1
f 74/223/1 79/217/1 73/222/1
f 75/224/1 80/218/1 74/223/1
f 58/53/1 81/219/1 75/224/1
f 234/61/1 63/225/1 233/58/1
f 235/63/1 64/226/1 234/61/1
f 236/65/1 65/227/1 235/63/1
f 237/67/1 66/228/1 236/65/1
f 238/69/1 67/229/1 237/67/1
f 239/71/1 68/230/1 238/69/1
f 240/231/1 69/232/1 239/71/1
f 1/1/1 14/4/1 13/2/1
f 14/4/1 57/233/1 56/5/1
f 2/3/1 13/2/1 12/6/1
f 13/2/1 56/5/1 54/8/1
f 56/5/1 55/234/1 53/9/1
f 3/7/1 12/6/1 11/10/1
f 12/6/1 54/8/1 51/12/1
f 54/8/1 53/9/1 50/13/1
f 53/9/1 52/235/1 49/14/1
f 4/11/1 11/10/1 10/15/1
f 11/10/1 51/12/1 48/17/1
f 51/12/1 50/13/1 47/18/1
f 50/13/1 49/14/1 46/19/1
f 5/16/1 10/15/1 9/20/1
f 10/15/1 48/17/1 44/22/1
f 48/17/1 47/18/1 43/23/1
f 47/18/1 46/19/1 42/24/1
f 46/19/1 45/236/1 41/25/1
f 6/21/1 9/20/1 8/26/1
f 9/20/1 44/22/1 40/28/1
f 44/22/1 43/23/1 39/29/1
f 43/23/1 42/24/1 38/30/1
f 42/24/1 41/25/1 37/31/1
f 40/28/1 39/29/1 34/32/1
f 39/29/1 38/30/1 33/34/1
f 38/30/1 37/31/1 32/35/1
f 37/31/1 36/237/1 31/36/1
f 34/32/1 33/34/1 28/37/1
f 33/34/1 32/35/1 27/39/1
f 32/35/1 31/36/1 26/40/1
f 31/36/1 30/238/1 25/41/1
f 29/38/1 28/37/1 23/42/1
f 28/37/1 27/39/1 22/44/1
f 27/39/1 26/40/1 21/45/1
f 26/40/1 25/41/1 20/46/1
f 24/43/1 23/42/1 18/47/1
f 23/42/1 22/44/1 17/49/1
f 22/44/1 21/45/1 16/50/1
f 21/45/1 20/46/1 15/51/1
f 19/48/1 18/47/1 59/52/1
f 18/47/1 17/49/1 60/54/1
f 17/49/1 16/50/1 61/55/1
f 16/50/1 15/51/1 62/56/1
f 225/57/1 234/61/1 233/58/1
f 226/60/1 235/63/1 234/61/1
f 227/62/1 236/65/1 235/63/1
f 228/64/1 237/67/1 236/65/1
f 229/66/1 238/69/1 237/67/1
f 230/68/1 239/71/1 238/69/1
f 231/70/1 240/231/1 239/71/1
f 216/72/1 225/57/1 224/59/1
f 217/74/1 226/60/1 225/57/1
f 218/75/1 227/62/1 226/60/1
f 219/76/1 228/64/1 227/62/1
f 220/77/1 229/66/1 228/64/1
f 221/78/1 230/68/1 229/66/1
f 222/79/1 231/70/1 230/68/1
f 223/80/1 232/239/1 231/70/1
f 207/81/1 216/72/1 215/73/1
f 208/83/1 217/74/1 216/72/1
f 209/84/1 218/75/1 217/74/1
f 210/85/1 219/76/1 218/75/1
f 211/86/1 220/77/1 219/76/1
f 212/87/1 221/78/1 220/77/1
f 213/88/1 222/79/1 221/78/1
f 214/89/1 223/80/1 222/79/1
f 198/90/1 207/81/1 206/82/1
f 199/92/1 208/83/1 207/81/1
f 200/93/1 209/84/1 208/83/1
f 201/94/1 210/85/1 209/84/1
f 202/95/1 211/86/1 210/85/1
f 203/96/1 212/87/1 211/86/1
f 204/97/1 213/88/1 212/87/1
f 205/98/1 214/89/1 213/88/1
f 189/99/1 198/90/1 197/91/1
f 190/101/1 199/92/1 198/90/1
f 191/102/1 200/93/1 199/92/1
f 192/103/1 201/94/1 200/93/1
f 193/104/1 202/95/1 201/94/1
f 194/105/1 203/96/1 202/95/1
f 195/106/1 204/97/1 203/96/1
f 196/107/1 205/98/1 204/97/1
f 180/108/1 189/99/1 188/100/1
f 181/110/1 190/101/1 189/99/1
f 182/111/1 191/102/1 190/101/1
f 183/112/1 192/103/1 191/102/1
f 184/113/1 193/104/1 192/103/1
f 185/114/1 194/105/1 193/104/1
f 186/115/1 195/106/1 194/105/1
f 187/116/1 196/107/1 195/106/1
f 171/117/1 180/108/1 179/109/1
f 172/119/1 181/110/1 180/108/1
f 173/120/1 182/111/1 181/110/1
f 174/121/1 183/112/1 182/111/1
f 175/122/1 184/113/1 183/112/1
f 176/123/1 185/114/1 184/113/1
f 177/124/1 186/115/1 185/114/1
f 178/125/1 187/116/1 186/115/1
f 163/126/1 171/117/1 170/118/1
f 164/128/1 172/119/1 171/117/1
f 165/129/1 173/120/1 172/119/1
f 166/130/1 174/121/1 173/120/1
f 167/131/1 175/122/1 174/121/1
f 168/132/1 176/123/1 175/122/1
f 169/133/1 177/124/1 176/123/1
f 155/134/1 163/126/1 162/127/1
f 156/136/1 164/128/1 163/126/1
f 157/137/1 165/129/1 164/128/1
f 158/138/1 166/130/1 165/129/1
f 159/139/1 167/131/1 166/130/1
f 160/140/1 168/132/1 167/131/1
f 161/141/1 169/133/1 168/132/1
f 147/142/1 155/134/1 154/135/1
f 148/144/1 156/136/1 155/134/1
f 149/145/1 157/137/1 156/136/1
f 150/146/1 158/138/1 157/137/1
f 151/147/1 159/139/1 158/138/1
f 152/148/1 160/140/1 159/139/1
f 153/149/1 161/141/1 160/140/1
f 139/150/1 147/142/1 146/143/1
f 140/152/1 148/144/1 147/142/1
f 141/153/1 149/145/1 148/144/1
f 142/154/1 150/146/1 149/145/1
f 143/155/1 151/147/1 150/146/1
f 144/156/1 152/148/1 151/147/1
f 145/157/1 153/149/1 152/148/1
f 131/158/1 139/150/1 138/151/1
f 132/160/1 140/152/1 139/150/1
f 133/161/1 141/153/1 140/152/1
f 134/162/1 142/154/1 141/153/1
f 135/163/1 143/155/1 142/154/1
f 136/164/1 144/156/1 143/155/1
f 137/165/1 145/157/1 144/156/1
f 124/166/1 132/160/1 131/158/1
f 125/168/1 133/161/1 132/160/1
f 126/169/1 134/162/1 133/161/1
f 127/170/1 135/163/1 134/162/1
f 128/171/1 136/164/1 135/163/1
f 129/172/1 137/165/1 136/164/1
f 117/173/1 124/166/1 123/167/1
f 118/175/1 125/168/1 124/166/1
f 119/176/1 126/169/1 125/168/1
f 120/177/1 127/170/1 126/169/1
f 121/178/1 128/171/1 127/170/1
f 122/179/1 129/172/1 128/171/1
f 110/180/1 117/173/1 116/174/1
f 111/182/1 118/175/1 117/173/1
f 112/183/1 119/176/1 118/175/1
f 113/184/1 120/177/1 119/176/1
f 114/185/1 121/178/1 120/177/1
f 115/186/1 122/179/1 121/178/1
f 103/187/1 110/180/1 109/181/1
f 104/189/1 111/182/1 110/180/1
f 105/190/1 112/183/1 111/182/1
f 106/191/1 113/184/1 112/183/1
f 107/192/1 114/185/1 113/184/1
f 108/193/1 115/186/1 114/185/1
f 96/194/1 103/187/1 102/188/1
f 97/196/1 104/189/1 103/187/1
f 98/197/1 105/190/1 104/189/1
f 99/198/1 106/191/1 105/190/1
f 100/199/1 107/192/1 106/191/1
f 101/200/1 108/193/1 107/192/1
f 89/201/1 96/194/1 95/195/1
f 90/203/1 97/196/1 96/194/1
f 91/204/1 98/197/1 97/196/1
f 92/205/1 99/198/1 98/197/1
f 93/206/1 100/199/1 99/198/1
f 94/207/1 101/200/1 100/199/1
f 61/55/1 62/56/1 101/200/1
f 83/208/1 90/203/1 89/201/1
f 84/210/1 91/204/1 90/203/1
f 85/211/1 92/205/1 91/204/1
f 86/212/1 93/206/1 92/205/1
f 87/213/1 94/207/1 93/206/1
f 60/54/1 61/55/1 94/207/1
f 77/214/1 83/208/1 82/209/1
f 78/216/1 84/210/1 83/208/1
f 79/217/1 85/211/1 84/210/1
f 80/218/1 86/212/1 85/211/1
f 81/219/1 87/213/1 86/212/1
f 59/52/1 60/54/1 87/213/1
f 72/220/1 78/216/1 77/214/1
f 73/222/1 79/217/1 78/216/1
f 74/223/1 80/218/1 79/217/1
f 75/224/1 81/219/1 80/218/1
f 58/53/1 59/52/1 81/219/1
f 234/61/1 64/226/1 63/225/1
f 235/63/1 65/227/1 64/226/1
f 236/65/1 66/228/1 65/227/1
f 237/67/1 67/229/1 66/228/1
f 238/69/1 68/230/1 67/229/1
f 239/71/1 69/232/1 68/230/1
f 240/231/1 70/240/1 69/232/1
